<?xml version="1.0"?>
<svg xmlns="http://www.w3.org/2000/svg" xmlns:xlink="http://www.w3.org/1999/xlink" data-noselect=""
	 viewBox="160 220 533 170"  width="533" height="170" preserveAspectRatio="none" version="1.1" class="svg-canvas"><defs/>
	<g id="background" data-noselect=""><rect fill="#ffffff" width="533" height="300" data-noselect=""/> <!----></g>
	<g id="shape_2VyoLW8tTf" transform="translate(220.61337447282006,324.23329081868) rotate(0,158.26338356899,9.3855312746349) scale(1,1)" filter="" style="opacity: 1;">
		<g>
			<svg xmlns="http://www.w3.org/2000/svg"  id="&#x56FE;&#x5C42;_1" data-name="&#x56FE;&#x5C42; 1"
												 viewBox="0 0 316.52676713798 18.77106254927" width="316.52676713798"
												 height="18.77106254927" class="style-removed"
												 preserveAspectRatio="none" data-parent="shape_2VyoLW8tTf"><title>90</title>
			<rect width="316.52676713798" height="18.77106254927" class="radius-elem" x="0" y="0" fill="#D9D9D9" rx="0" ry="0" stroke-width="0"/></svg>
		</g>
	</g>
	<g id="shape_V2Q1v97SSd"  transform="translate(87.69855235330004,-21.236900082659986) rotate(0,261.12,303.98) scale(1,1)"  filter="" style="opacity: 1;"><g>
		<svg xmlns="http://www.w3.org/2000/svg" xmlns:xlink="http://www.w3.org/1999/xlink" version="1.1" width="688.48" height="607.96" viewBox="0 0 688.48 607.96" data-parent="shape_V2Q1v97SSd">
			<g data-width="355.08864" transform="translate(84.03136, 0)">
				<path d="M11.30-49.71L8.89-52.03L25.60-52.03L32.83-38.48L42.39-50.45L40.81-52.03L59.93-52.03L39.23-28.93L53.53-4.99L37.57-4.99L30.42-19.37L18.45-4.99L2.49-4.99L23.27-28.93L11.30-49.71Z" transform="translate(0 332.48) " fill="#13227a" stroke="#13227a" stroke-width="0.139" data-glyph-w="62.42312" data-glyph-h="108.056" data-glyph-ascender="83.12" data-glyph-descender="-24.936"/>
				<path d="M51.37-52.37L50.29-44.47L27.35-4.99L11.64-4.99L34.25-44.47L2.91-44.47L4.07-52.37L51.37-52.37Z" transform="translate(62.42312 332.48) " fill="#13227a" stroke="#13227a" stroke-width="0.139" data-glyph-w="52.19936" data-glyph-h="108.056" data-glyph-ascender="83.12" data-glyph-descender="-24.936"/>
				<path d="M6.90-52.03L58.77-52.03L55.61-26.52Q54.94-24.10 52.99-22.53Q51.04-20.95 49.21-20.95L49.21-20.95L21.28-20.95L18.87-4.99L3.74-4.99L9.31-49.71L6.90-52.03ZM42.06-44.05L24.52-44.05L22.86-28.93L39.65-28.93L42.06-44.05Z" transform="translate(114.62248 332.48) " fill="#13227a" stroke="#13227a" stroke-width="0.139" data-glyph-w="62.09064" data-glyph-h="108.056" data-glyph-ascender="83.12" data-glyph-descender="-24.936"/>
				<path d="M6.15-52.03L25.27-52.03L19.70-12.97L50.79-12.97L50.04-4.99L8.56-4.99Q6.15-4.99 4.95-6.57Q3.74-8.15 3.74-10.56L3.74-10.56L8.56-48.87L6.15-52.03Z" transform="translate(176.71312 332.48) " fill="#13227a" stroke="#13227a" stroke-width="0.139" data-glyph-w="53.27992" data-glyph-h="108.056" data-glyph-ascender="83.12" data-glyph-descender="-24.936"/>
				<path d="M6.90-52.03L25.27-52.03L19.70-12.97L38.82-12.97L44.47-49.71L41.23-52.03L60.43-52.03L54.03-4.99L8.56-4.99Q6.15-4.99 4.95-6.57Q3.74-8.15 3.74-10.56L3.74-10.56L9.31-49.71L6.90-52.03Z" transform="translate(229.99304 332.48) " fill="#13227a" stroke="#13227a" stroke-width="0.139" data-glyph-w="64.16864" data-glyph-h="108.056" data-glyph-ascender="83.12" data-glyph-descender="-24.936"/>
				<path d="M7.73-14.55L36.49-14.55L38.07-24.10L6.15-24.10L10.14-52.03L57.19-52.03L55.61-38.48L39.65-38.48L40.48-44.05L25.27-44.05L22.86-32.08L54.78-32.08L51.62-10.56Q51.62-9.39 51.08-8.35Q50.54-7.31 49.62-6.57Q48.71-5.82 47.59-5.40Q46.46-4.99 45.22-4.99L45.22-4.99L3.74-4.99L5.32-17.79L7.73-14.55Z" transform="translate(294.16168 332.48) " fill="#13227a" stroke="#13227a" stroke-width="0.139" data-glyph-w="60.92696" data-glyph-h="108.056" data-glyph-ascender="83.12" data-glyph-descender="-24.936"/>
			</g></svg>
	</g></g>
	<g id="shape_NK8AvzOFkm" transform="translate(361.91854442737,281.98687124301) rotate(0,96.78999999999999,81.38484375) scale(1,1)" filter="" style="opacity: 1;"><g>
		<svg xmlns="http://www.w3.org/2000/svg" xmlns:xlink="http://www.w3.org/1999/xlink" version="1.1" width="240.16" height="162.7696875" viewBox="0 0 240.16 162.7696875" data-parent="shape_NK8AvzOFkm">
			<g data-width="137.40067635193893" transform="translate(32.88932364806107, 0)">
				<path d="M1.11 0.55L1.11-15.94Q1.11-16.47 1.64-16.47L1.64-16.47L5.09-16.47Q5.30-16.47 5.46-16.33L5.46-16.33L17.76-4.09Q18.01-3.84 18.33-3.98L18.33-3.98Q18.65-4.12 18.65-4.48L18.65-4.48L18.65-15.94Q18.65-16.47 19.17-16.47L19.17-16.47L21.63-16.47Q22.15-16.47 22.15-15.94L22.15-15.94L22.15 0.55Q22.15 1.07 21.63 1.07L21.63 1.07L18.20 1.07Q17.97 1.07 17.83 0.91L17.83 0.91L5.53-11.30Q5.28-11.55 4.96-11.42L4.96-11.42Q4.62-11.28 4.62-10.94L4.62-10.94L4.62 0.55Q4.62 1.07 4.09 1.07L4.09 1.07L1.64 1.07Q1.11 1.07 1.11 0.55L1.11 0.55Z" transform="translate(0 89.88484375) " fill="#B0B0B0" stroke="#B0B0B0" stroke-width="0.039" data-glyph-w="28.75293824615649" data-glyph-h="22.744140625" data-glyph-ascender="20.01484375" data-glyph-descender="-2.7292968749999997"/>
				<path d="M1.11 0.57L1.11-15.92Q1.11-16.44 1.64-16.44L1.64-16.44L4.09-16.44Q4.62-16.44 4.62-15.92L4.62-15.92L4.62 0.57Q4.62 1.09 4.09 1.09L4.09 1.09L1.64 1.09Q1.11 1.09 1.11 0.57L1.11 0.57Z" transform="translate(28.75293824615649 89.88484375) " fill="#B0B0B0" stroke="#B0B0B0" stroke-width="0.039" data-glyph-w="11.194461683656488" data-glyph-h="22.744140625" data-glyph-ascender="20.01484375" data-glyph-descender="-2.7292968749999997"/>
				<path d="M1.11-7.66L1.11 0.57Q1.11 1.09 1.64 1.09L1.64 1.09L4.09 1.09Q4.62 1.09 4.62 0.57L4.62 0.57L4.62-4.18L18.65-4.18L18.65 0.57Q18.65 1.09 19.17 1.09L19.17 1.09L21.63 1.09Q22.15 1.09 22.15 0.57L22.15 0.57L22.15-7.66Q22.15-7.85 22.06-7.98L22.06-7.98L16.06-16.24Q15.90-16.44 15.63-16.44L15.63-16.44L7.64-16.44Q7.39-16.44 7.23-16.24L7.23-16.24L1.23-7.98Q1.11-7.85 1.11-7.66L1.11-7.66ZM18.65-5.48L4.62-5.48L4.62-6.53Q4.62-6.71 4.73-6.85L4.73-6.85L10.60-14.92Q10.76-15.12 11.03-15.12L11.03-15.12L12.26-15.12Q12.51-15.12 12.67-14.92L12.67-14.92L18.56-6.85Q18.65-6.71 18.65-6.53L18.65-6.53L18.65-5.48Z" transform="translate(39.947399929812974 89.88484375) " fill="#B0B0B0" stroke="#B0B0B0" stroke-width="0.039" data-glyph-w="28.75293824615649" data-glyph-h="22.744140625" data-glyph-ascender="20.01484375" data-glyph-descender="-2.7292968749999997"/>
				<path d="M1.11 0.55L1.11-15.94Q1.11-16.47 1.64-16.47L1.64-16.47L5.09-16.47Q5.30-16.47 5.46-16.33L5.46-16.33L17.76-4.09Q18.01-3.84 18.33-3.98L18.33-3.98Q18.65-4.12 18.65-4.48L18.65-4.48L18.65-15.94Q18.65-16.47 19.17-16.47L19.17-16.47L21.63-16.47Q22.15-16.47 22.15-15.94L22.15-15.94L22.15 0.55Q22.15 1.07 21.63 1.07L21.63 1.07L18.20 1.07Q17.97 1.07 17.83 0.91L17.83 0.91L5.53-11.30Q5.28-11.55 4.96-11.42L4.96-11.42Q4.62-11.28 4.62-10.94L4.62-10.94L4.62 0.55Q4.62 1.07 4.09 1.07L4.09 1.07L1.64 1.07Q1.11 1.07 1.11 0.55L1.11 0.55Z" transform="translate(68.70033817596946 89.88484375) " fill="#B0B0B0" stroke="#B0B0B0" stroke-width="0.039" data-glyph-w="28.75293824615649" data-glyph-h="22.744140625" data-glyph-ascender="20.01484375" data-glyph-descender="-2.7292968749999997"/>
				<path d="M17.26 0.89L11.64-5.16L6.03 0.89Q5.87 1.07 5.64 1.07L5.64 1.07L2.32 1.07Q1.98 1.07 1.84 0.75L1.84 0.75Q1.71 0.43 1.93 0.18L1.93 0.18L9.28-7.71L1.93-15.58Q1.71-15.85 1.84-16.15L1.84-16.15Q1.98-16.47 2.32-16.47L2.32-16.47L5.64-16.47Q5.87-16.47 6.03-16.31L6.03-16.31L11.64-10.26L17.26-16.31Q17.42-16.47 17.65-16.47L17.65-16.47L20.95-16.47Q21.29-16.47 21.45-16.15L21.45-16.15Q21.58-15.85 21.33-15.58L21.33-15.58L14.01-7.71L21.33 0.18Q21.58 0.43 21.45 0.75L21.45 0.75Q21.29 1.07 20.95 1.07L20.95 1.07L17.65 1.07Q17.42 1.07 17.26 0.89L17.26 0.89Z" transform="translate(97.45327642212595 89.88484375) " fill="#B0B0B0" stroke="#B0B0B0" stroke-width="0.039" data-glyph-w="28.75293824615649" data-glyph-h="22.744140625" data-glyph-ascender="20.01484375" data-glyph-descender="-2.7292968749999997"/>
				<path d="M1.11 0.57L1.11-15.92Q1.11-16.44 1.64-16.44L1.64-16.44L4.09-16.44Q4.62-16.44 4.62-15.92L4.62-15.92L4.62 0.57Q4.62 1.09 4.09 1.09L4.09 1.09L1.64 1.09Q1.11 1.09 1.11 0.57L1.11 0.57Z" transform="translate(126.20621466828244 89.88484375) " fill="#B0B0B0" stroke="#B0B0B0" stroke-width="0.039" data-glyph-w="11.194461683656488" data-glyph-h="22.744140625" data-glyph-ascender="20.01484375" data-glyph-descender="-2.7292968749999997"/>
			</g></svg></g></g>
	<g id="shape_ABcRgBMFdC" transform="translate(518.96798800749,225.12828500699) rotate(0,54.106729819606,71.453285946594) scale(1,1)" filter="" style="opacity: 1;">
		<g>
			<svg xmlns="http://www.w3.org/2000/svg" xmlns:xlink="http://www.w3.org/1999/xlink" version="1.1" id="&#x56FE;&#x5C42;_1" x="0px" y="0px" viewBox="0 0 193.7 255.8" style="enable-background:new 0 0 193.7 255.8;" xml:space="preserve" width="108.21345963921" height="142.90657189319" class="style-removed" preserveAspectRatio="none" data-parent="shape_ABcRgBMFdC">
				<g>
					<polygon points="89.5,255.8 55.5,116.8 71.4,58.1 104.7,194  " fill="#d9d9d9" stroke-width="0"/>
					<polygon points="137.6,59.6 113.8,59.6 163.1,0 193.7,59.7 167.8,59.7 119.8,255.8 89.5,255.8  " fill="#d9d9d9" stroke-width="0"/>
					<polygon points="30.3,210 0,210 41.1,58.2 41.1,58.1 71.4,58.1  " fill="#d9d9d9" stroke-width="0"/>
				</g>
			</svg>
		</g>
	</g>
</svg>
