<?xml version="1.0" standalone="no"?><!DOCTYPE svg PUBLIC "-//W3C//DTD SVG 1.1//EN" "http://www.w3.org/Graphics/SVG/1.1/DTD/svg11.dtd"><svg t="1651560453818" class="icon" viewBox="0 0 1024 1024" version="1.1" xmlns="http://www.w3.org/2000/svg" p-id="6049" xmlns:xlink="http://www.w3.org/1999/xlink" width="200" height="200"><defs><style type="text/css">@font-face { font-family: feedback-iconfont; src: url("//at.alicdn.com/t/font_1031158_u69w8yhxdu.woff2?t=1630033759944") format("woff2"), url("//at.alicdn.com/t/font_1031158_u69w8yhxdu.woff?t=1630033759944") format("woff"), url("//at.alicdn.com/t/font_1031158_u69w8yhxdu.ttf?t=1630033759944") format("truetype"); }
</style></defs><path d="M879.177 626.688l-37.303-8.265a112.494 112.494 0 0 0-11.703-26.99l19.822-34.158c7.022-11.702 11.703-30.646 0-41.179l-20.992-21.211c-5.851-5.779-12.873-8.12-20.992-8.12s-15.287 2.341-22.162 6.95l-30.428 21.21a187.173 187.173 0 0 0-26.843-11.848l-8.119-37.523c-2.34-14.116-15.14-29.403-30.281-29.403h-29.184c-16.457 0-25.746 15.287-29.11 29.403l-9.436 37.523c-9.29 3.584-20.041 7.168-28.014 11.849l-33.865-21.285a54.272 54.272 0 0 0-22.162-5.778 29.989 29.989 0 0 0-20.992 8.265l-20.992 19.968c-11.703 11.776-7.022 29.477 0 41.18l20.992 35.254-10.533 24.723-37.303 8.338c-13.97 2.267-29.184 15.287-29.184 30.574v29.257c0 16.603 15.14 25.892 29.111 29.403l37.303 9.436c2.267 8.265 5.851 15.286 9.289 23.552l-20.846 35.181c-7.168 11.776-11.703 30.574 0 41.18l22.163 23.479c5.851 5.778 12.873 8.118 20.992 8.118a38.766 38.766 0 0 0 22.162-6.948l33.865-21.285c9.435 4.535 18.725 9.436 28.014 11.85l9.435 37.595c3.438 13.97 12.727 29.403 29.111 29.403h29.11c16.458 0 28.015-15.433 30.282-29.403l8.046-38.912c9.435-3.438 17.408-6.949 26.843-10.533l32.622 21.285c5.851 4.535 13.97 6.948 22.235 6.948a29.842 29.842 0 0 0 20.992-8.118l21.065-21.212c11.557-11.703 6.949-29.403 0-41.106l-19.821-34.231c3.291-8.119 8.119-16.603 10.532-24.722l37.45-9.436c13.823-3.584 29.11-12.873 29.11-29.403v-29.257c-2.34-16.311-16.164-28.087-30.28-31.598zM675.035 743.205a70.73 70.73 0 0 1 0-141.24c38.4 0 69.852 31.818 69.852 70.73 0 38.766-31.452 70.51-69.852 70.51z" fill="#13227a" p-id="6050"></path><path d="M367.69 799.817h-0.586l-46.153-0.731c-64.366 0-125.586-25.308-171.813-71.315A242.615 242.615 0 0 1 77.97 555.447c0-64.951 25.308-126.098 71.241-172.252a240.786 240.786 0 0 1 117.687-65.316c3.804-20.7 9.875-40.74 18.14-59.758 14.263-34.158 35.108-65.243 61.952-91.867a292.279 292.279 0 0 1 91.867-62.025 293.595 293.595 0 0 1 244.882 8.923 291.109 291.109 0 0 1 100.352 84.919 36.645 36.645 0 0 1-7.68 51.2 36.937 36.937 0 0 1-51.273-7.826 217.234 217.234 0 0 0-74.825-63.269 219.575 219.575 0 0 0-183.003-6.656 217.82 217.82 0 0 0-115.054 115.054 208.677 208.677 0 0 0-16.31 65.828 36.571 36.571 0 0 1-32.696 33.353 170.277 170.277 0 0 0-152.137 169.692 169.91 169.91 0 0 0 170.423 170.496l39.57 0.658a32.402 32.402 0 0 1 6.583-0.658l0.073 0.731v-0.731a35.401 35.401 0 0 1 39.497 31.232 37.45 37.45 0 0 1-23.113 38.692 36.425 36.425 0 0 1-16.457 3.95z" fill="#13227a" p-id="6051"></path></svg>